HIERARCHY
ROOT Hips
{
    OFFSET 0.000000 0.000000 0.000000
    CHANNELS 6 Xposition Yposition Zposition Zrotation Xrotation Yrotation
    JOINT Spine
    {
        OFFSET -0.000000 8.359812 0.000000
        CHANNELS 3 Zrotation Xrotation Yrotation
        JOINT Spine1
        {
            OFFSET -0.000000 28.141317 0.000000
            CHANNELS 3 Zrotation Xrotation Yrotation
            JOINT Neck
            {
                OFFSET -0.000000 28.025745 2.547795
                CHANNELS 3 Zrotation Xrotation Yrotation
                JOINT Head
                {
                    OFFSET -0.000000 14.272848 -2.038978
                    CHANNELS 3 Zrotation Xrotation Yrotation
                    End Site
                    {
                        OFFSET -0.000000 25.487228 0.000000
                    }
                }
            }
            JOINT LeftShoulder
            {
                OFFSET 4.059574 26.120710 -0.180480
                CHANNELS 3 Zrotation Xrotation Yrotation
                JOINT LeftArm
                {
                    OFFSET 11.584161 0.000000 0.000000
                    CHANNELS 3 Zrotation Xrotation Yrotation
                    JOINT LeftForeArm
                    {
                        OFFSET 30.766815 0.000000 0.000000
                        CHANNELS 3 Zrotation Xrotation Yrotation
                        JOINT LeftHand
                        {
                            OFFSET 29.436810 0.000000 0.000000
                            CHANNELS 3 Zrotation Xrotation Yrotation
                            End Site
                            {
                                OFFSET 15.292337 0.000000 0.000000
                            }
                        }
                    }
                }
            }
            JOINT RightShoulder
            {
                OFFSET -4.095355 26.120710 -0.180480
                CHANNELS 3 Zrotation Xrotation Yrotation
                JOINT RightArm
                {
                    OFFSET -11.584161 0.000000 0.000000
                    CHANNELS 3 Zrotation Xrotation Yrotation
                    JOINT RightForeArm
                    {
                        OFFSET -30.766815 0.000000 0.000000
                        CHANNELS 3 Zrotation Xrotation Yrotation
                        JOINT RightHand
                        {
                            OFFSET -29.436810 0.000000 0.000000
                            CHANNELS 3 Zrotation Xrotation Yrotation
                            End Site
                            {
                                OFFSET -15.292337 0.000000 0.000000
                            }
                        }
                    }
                }
            }
        }
    }
    JOINT LeftUpLeg
    {
        OFFSET 10.194892 0.000000 0.000000
        CHANNELS 3 Zrotation Xrotation Yrotation
        JOINT LeftLeg
        {
            OFFSET -0.000000 -32.520012 0.000000
            CHANNELS 3 Zrotation Xrotation Yrotation
            JOINT LeftFoot
            {
                OFFSET -0.000000 -49.106510 0.000000
                CHANNELS 3 Zrotation Xrotation Yrotation
                JOINT LeftToeBase
                {
                    OFFSET -0.000000 -6.626679 15.292337
                    CHANNELS 3 Zrotation Xrotation Yrotation
                    End Site
                    {
                        OFFSET -0.000000 0.000000 4.077957
                    }
                }
            }
        }
    }
    JOINT RightUpLeg
    {
        OFFSET -10.194892 0.000000 0.000000
        CHANNELS 3 Zrotation Xrotation Yrotation
        JOINT RightLeg
        {
            OFFSET -0.000000 -32.520012 0.000000
            CHANNELS 3 Zrotation Xrotation Yrotation
            JOINT RightFoot
            {
                OFFSET -0.000000 -49.106510 0.000000
                CHANNELS 3 Zrotation Xrotation Yrotation
                JOINT RightToeBase
                {
                    OFFSET -0.000000 -6.626679 15.292337
                    CHANNELS 3 Zrotation Xrotation Yrotation
                    End Site
                    {
                        OFFSET -0.000000 0.000000 4.077957
                    }
                }
            }
        }
    }
}
MOTION
Frames:    8
Frame Time:    0.008333
-16.653923    87.998184    32.183163    -1.588291    -2.680615    82.391167    3.447899    -8.678535    0.032706    -0.357582    3.772124    -0.217353    3.584773    31.589878    15.144959    -16.058752    -10.128126    12.684521    14.565165    -2.706181    1.111309    -14.698212    -4.114797    2.294801    2.622538    -2.102150    0.858600    7.351717    -1.652515    7.298862    -16.474098    -1.272929    0.934846    22.894075    -6.111732    13.885606    -3.526525    -1.346424    -1.530545    -11.942344    0.724892    -20.045906    3.270309    1.503076    -6.328424    -4.929598    0.259174    -9.794441    5.487014    -3.459501    32.412151    0.000000    0.000000    0.000000    0.810171    -11.736372    0.225723    4.104415    24.010662    -0.894310    -0.846854    -10.966896    -5.654616    0.000000    0.000000    0.000000    
-16.617361    88.029404    32.242386    -1.545798    -2.761867    82.496208    3.514750    -8.652127    -0.011869    -0.383605    3.747884    -0.265313    3.620111    31.754263    15.200589    -15.961946    -10.110146    12.779080    14.565028    -2.694335    1.072259    -14.761159    -3.986107    2.318650    2.575256    -2.158068    0.844247    7.248365    -1.717091    7.256279    -16.405617    -1.251765    0.908688    22.839315    -6.041094    13.893358    -3.507520    -1.326924    -1.510155    -11.831635    0.727106    -20.060928    3.443338    1.560344    -6.393356    -5.030747    0.297778    -10.352281    5.500247    -3.368553    32.888706    0.000000    0.000000    0.000000    0.953561    -11.783325    0.246616    3.988275    23.951820    -0.614975    -1.227424    -11.263112    -5.660986    0.000000    0.000000    0.000000    
-16.574604    88.064812    32.305946    -1.510049    -2.837297    82.621468    3.572225    -8.651689    -0.073051    -0.401645    3.741905    -0.330316    3.678828    31.932800    15.278426    -15.916699    -10.120951    12.885665    14.511239    -2.791328    1.098270    -14.735877    -3.746946    2.297408    2.505306    -2.212166    0.810544    7.094714    -1.773845    7.350656    -16.375753    -1.229152    0.968098    22.817942    -6.039945    13.821115    -3.503351    -1.310514    -1.512833    -11.694157    0.707286    -19.950848    3.445350    1.541843    -6.280775    -4.868012    0.409109    -10.062427    5.360106    -3.337665    32.389477    0.000000    0.000000    0.000000    1.095499    -11.717988    0.277758    3.881233    23.639572    -0.375998    -1.244530    -11.506244    -5.910646    0.000000    0.000000    0.000000    
-16.524134    88.100540    32.376366    -1.471999    -2.918893    82.763504    3.617520    -8.677876    -0.135056    -0.384349    3.787009    -0.397003    3.760467    31.879101    15.348649    -15.827564    -9.733418    13.042582    14.557515    -2.628850    1.036733    -14.876604    -3.879576    2.298092    2.489033    -2.181803    0.798588    6.924457    -1.754843    7.337882    -16.338289    -1.210804    0.958220    22.766235    -6.038131    13.810934    -3.486119    -1.412474    -1.508240    -11.803290    0.622713    -19.928820    3.550577    1.562248    -6.324780    -4.852293    0.498034    -10.342608    5.299517    -3.285611    32.584053    0.000000    0.000000    0.000000    1.250908    -11.545499    0.309019    3.737862    23.121269    -0.116246    -1.483412    -11.598257    -5.929810    0.000000    0.000000    0.000000    
-16.463627    88.134773    32.444279    -1.430295    -2.992146    82.929573    3.673865    -8.705005    -0.190920    -0.427900    3.815766    -0.456463    3.919471    31.802919    15.355727    -15.653147    -9.404391    13.154655    14.656844    -2.623047    0.999585    -15.022030    -3.782084    2.259044    2.461112    -2.166036    0.805149    6.670013    -1.746476    7.490727    -16.248283    -1.146754    0.946293    22.687912    -6.031161    13.777164    -3.487520    -1.333676    -1.541097    -11.504378    0.638018    -19.837917    3.690133    1.627338    -6.485243    -4.903214    0.528583    -10.831034    5.278679    -3.202776    33.069855    0.000000    0.000000    0.000000    1.373685    -11.277386    0.351871    3.654210    22.427954    0.131907    -1.265633    -11.751446    -6.056565    0.000000    0.000000    0.000000    
-16.397842    88.166969    32.516125    -1.393638    -3.053616    83.072304    3.698584    -8.778645    -0.233858    -0.409387    3.935328    -0.503969    3.888878    31.873898    15.434060    -15.412284    -9.437222    13.283890    14.707359    -2.656768    0.998944    -15.129461    -3.811003    2.164762    2.459928    -1.970108    0.920200    6.365016    -1.591959    7.150312    -16.255829    -1.169440    0.885959    22.669851    -5.972651    13.736575    -3.467708    -1.374640    -1.539985    -11.579954    0.605453    -19.787910    3.740309    1.672955    -6.517173    -4.828375    0.560822    -10.773760    5.164118    -3.144612    32.946487    0.000000    0.000000    0.000000    1.500730    -10.947392    0.400555    3.547106    21.606663    0.342845    -1.305285    -11.882160    -6.120269    0.000000    0.000000    0.000000    
-16.327158    88.200470    32.591076    -1.365647    -3.107398    83.237022    3.700984    -8.815750    -0.282224    -0.348830    3.935454    -0.555633    3.863081    31.870934    15.440630    -15.104402    -9.205048    13.384552    14.679317    -2.622837    0.942345    -15.184803    -3.895099    2.092291    2.424771    -1.827126    0.988571    6.263670    -1.458525    7.113094    -16.261171    -1.129015    0.836123    22.625149    -5.924325    13.699298    -3.457807    -1.447667    -1.499539    -11.603626    0.542497    -19.831207    3.706365    1.692005    -6.486612    -4.624095    0.600592    -10.256172    4.976698    -3.132293    32.299908    0.000000    0.000000    0.000000    1.619001    -10.520576    0.416310    3.444349    20.594891    0.513198    -1.182801    -11.928217    -6.141708    0.000000    0.000000    0.000000    
-16.269329    88.230446    32.658642    -1.372487    -3.145096    83.375504    3.700669    -8.854323    -0.321281    -0.270417    3.885844    -0.598698    3.933361    32.002220    15.518017    -15.016519    -9.179287    13.504717    14.607267    -2.608841    0.887770    -15.228497    -3.936055    2.031123    2.437034    -1.705291    1.073039    6.113484    -1.352819    7.021875    -16.279171    -1.097142    0.796687    22.577864    -5.886067    13.661444    -3.460244    -1.509116    -1.487095    -11.602486    0.487609    -19.892958    3.744409    1.700405    -6.618888    -4.554797    0.651664    -10.664599    4.870082    -3.102533    32.731186    0.000000    0.000000    0.000000    1.718075    -10.090555    0.507562    3.377077    19.487644    0.647680    -1.176439    -11.766186    -6.264037    0.000000    0.000000    0.000000    
